<svg width="542" height="542" viewBox="0 0 542 542" fill="none" xmlns="http://www.w3.org/2000/svg">
<g clip-path="url(#clip0_615_1120)">
<rect x="0.285767" width="541.714" height="541.714" rx="70" fill="#08090B"/>
<path d="M248.34 286.51L327.263 222.783C330.614 220.077 336.142 220.541 338.764 223.747L356.858 245.86C359.35 248.905 358.07 253.049 354.111 254.747L257.095 296.36C255.501 297.041 253.661 297.229 251.911 296.892C250.16 296.554 248.615 295.713 247.555 294.52C246.495 293.328 245.992 291.864 246.136 290.394C246.28 288.924 247.062 287.546 248.34 286.51ZM261.192 341.484C261.483 342.668 262.297 343.722 263.478 344.445C264.658 345.168 266.122 345.508 267.588 345.4L354.387 339.021C355.222 338.959 356.033 338.754 356.765 338.419C357.497 338.083 358.135 337.624 358.636 337.073C359.138 336.521 359.492 335.889 359.675 335.217C359.859 334.545 359.868 333.849 359.701 333.174L354.587 312.409C353.846 309.399 349.952 307.679 346.483 308.831L264.798 335.977C263.508 336.405 262.442 337.19 261.784 338.195C261.125 339.201 260.916 340.364 261.192 341.484ZM196.631 265.742C197.858 266.411 199.341 266.686 200.798 266.513C202.255 266.34 203.581 265.732 204.524 264.805L260.326 209.938C260.863 209.41 261.259 208.794 261.487 208.132C261.715 207.47 261.77 206.775 261.648 206.094C261.527 205.412 261.232 204.759 260.783 204.177C260.334 203.596 259.74 203.098 259.041 202.716L237.531 190.982C234.413 189.28 230.179 190.322 228.724 193.15L194.433 259.752C193.891 260.803 193.814 261.977 194.215 263.071C194.616 264.165 195.471 265.11 196.631 265.742Z" fill="#59CAFC"/>
</g>
<rect x="2.28577" y="2" width="537.714" height="537.714" rx="68" stroke="#282B2E" stroke-width="4"/>
<defs>
<clipPath id="clip0_615_1120">
<rect x="0.285767" width="541.714" height="541.714" rx="70" fill="white"/>
</clipPath>
</defs>
</svg>
